<svg xmlns="http://www.w3.org/2000/svg" width="120" height="120" fill="none"><path fill="url(#a)" d="M12 80a4 4 0 0 1 4-4h20a4 4 0 0 1 4 4v28H12V80Z"/><path fill="url(#b)" d="M46 48a4 4 0 0 1 4-4h20a4 4 0 0 1 4 4v60H46V48Z"/><path fill="url(#c)" d="M80 16a4 4 0 0 1 4-4h20a4 4 0 0 1 4 4v92H80V16Z"/><defs><linearGradient id="a" x1="26" x2="26" y1="76" y2="108" gradientUnits="userSpaceOnUse"><stop offset=".136" stop-color="#00E56D"/><stop offset="1" stop-color="#00E56D" stop-opacity=".1"/></linearGradient><linearGradient id="b" x1="60" x2="60" y1="44" y2="108" gradientUnits="userSpaceOnUse"><stop offset=".141" stop-color="#00E56D"/><stop offset="1" stop-color="#00E56D" stop-opacity=".1"/></linearGradient><linearGradient id="c" x1="94" x2="94" y1="12" y2="108" gradientUnits="userSpaceOnUse"><stop offset=".127" stop-color="#00E56D"/><stop offset="1" stop-color="#00E56D" stop-opacity=".1"/></linearGradient></defs></svg>