<svg xmlns="http://www.w3.org/2000/svg" width="91" height="49" fill="none"><path fill="#fff" d="M23.639 0h4.182v25.846H23.64V0ZM42.368 17.655c0 4.005-3.273 4.369-4.364 4.369-2.546 0-2.91-2.366-2.91-3.64V8.372h-4.182V18.2c0 2.367.728 4.55 2.182 5.825 1.273 1.274 2.91 1.82 4.91 1.82 1.455 0 3.273-.364 4.364-1.456v1.456h4.183V8.373h-4.183v9.282ZM54.735 2.002h-4.183v6.37h-3.091v4.005h3.091v13.47h4.183v-13.47h3.091V8.373h-3.091v-6.37ZM70.92 20.568c-.909.728-2.182 1.274-3.455 1.274-2.91 0-4.91-2.184-4.91-5.097 0-2.912 2-4.914 4.91-4.914 1.273 0 2.546.364 3.455 1.274l.546.546 2.91-2.73-.728-.546a9.319 9.319 0 0 0-6.183-2.366c-5.092 0-8.91 3.822-8.91 8.918 0 5.097 3.819 8.92 8.91 8.92 2.364 0 4.546-.91 6.183-2.367l.727-.546-2.91-2.912-.545.546ZM89.104 9.829c-1.273-1.274-2.546-1.82-4.546-1.82-1.455 0-2.91.364-4 1.456V0h-4.183v25.846h4.183V16.2c0-4.004 2.727-4.368 3.818-4.368 2.546 0 2.364 2.366 2.364 3.64v10.193h4.183v-10.01c0-2.367-.546-4.551-1.819-5.825Z"/><path fill="#fff" d="M67.285 19.84a2.911 2.911 0 0 0 2.91-2.913 2.911 2.911 0 0 0-2.91-2.912 2.91 2.91 0 0 0-2.91 2.912 2.91 2.91 0 0 0 2.91 2.913ZM17.82 19.476c-1.454 1.456-3.636 2.366-6 2.366-4.546 0-7.82-3.64-7.82-8.555 0-4.914 3.274-8.555 8.002-8.555 2.182 0 4.364.91 6 2.549l.546.546 2.728-2.73-.546-.547C18.366 2.184 15.275.91 12.002.91 5.092.728 0 6.19 0 13.287c0 7.099 5.092 12.56 11.82 12.56 3.273 0 6.546-1.275 8.729-3.641l.545-.546-2.728-2.73-.545.546Z"/><path fill="#00E56D" d="m6.973 35.027 1.462 4.5h4.73l-3.827 2.78 1.462 4.5-3.827-2.781-3.828 2.78 1.462-4.499-3.827-2.78h4.73l1.463-4.5ZM20.994 35.027l1.462 4.5h4.731l-3.827 2.78 1.462 4.5-3.828-2.781-3.827 2.78 1.462-4.499-3.828-2.78h4.731l1.462-4.5ZM35.017 35.027l1.461 4.5h4.731l-3.827 2.78 1.462 4.5-3.828-2.781-3.827 2.78 1.462-4.499-3.827-2.78h4.73l1.462-4.5ZM49.038 35.027l1.462 4.5h4.731l-3.827 2.78 1.462 4.5-3.828-2.781-3.827 2.78 1.462-4.499-3.828-2.78h4.732l1.461-4.5ZM63.06 35.027l1.462 4.5h4.731l-3.827 2.78 1.462 4.5-3.828-2.781-3.827 2.78 1.462-4.499-3.827-2.78h4.73l1.462-4.5Z"/><path fill="#fff" d="M73.832 44.111v-1.428l3.939-5.59h2.263v5.583h1.17v1.435h-1.17v1.928H78.3V44.11h-4.467Zm4.467-1.434v-3.819h-.012l-2.672 3.806v.012H78.3Zm2.882 5.229.444-3.326h1.7l-.907 3.326H81.18Zm5.932-1.724c-.593 0-1.117-.111-1.573-.336a2.838 2.838 0 0 1-1.087-.918 2.768 2.768 0 0 1-.486-1.321h1.723c.064.348.222.626.474.834.252.209.575.313.967.313.636 0 1.108-.256 1.417-.769.308-.512.462-1.187.462-2.023h-.012a2.13 2.13 0 0 1-.877.774 2.875 2.875 0 0 1-1.242.259c-.577 0-1.091-.128-1.543-.385a2.88 2.88 0 0 1-1.063-1.062c-.256-.449-.384-.96-.384-1.537 0-.608.14-1.143.42-1.603a2.92 2.92 0 0 1 1.17-1.075c.501-.256 1.073-.384 1.718-.384 1.116 0 1.983.384 2.6 1.153.616.768.924 1.847.924 3.236 0 .98-.138 1.835-.414 2.563-.273.725-.677 1.287-1.213 1.687-.536.396-1.197.594-1.981.594Zm.078-4.58c.296 0 .562-.07.798-.21.24-.14.428-.33.565-.57.14-.24.21-.513.21-.817 0-.304-.068-.576-.204-.817a1.515 1.515 0 0 0-1.351-.786c-.445 0-.817.154-1.117.462-.3.304-.45.687-.45 1.147 0 .456.148.836.444 1.14.296.3.665.45 1.105.45Z"/></svg>