<svg xmlns="http://www.w3.org/2000/svg" width="110" height="38" fill="none"><path fill="#fff" fill-rule="evenodd" d="m9.68 37.984-5.118-5.983h-.846v5.988H0V24.636l3.326-4.156h4.107c1.44 0 2.751.416 3.79 1.219 1.024.79 1.749 1.922 2.042 3.367a6.045 6.045 0 0 1-.21 3.225c-.36 1.007-1 1.91-1.929 2.58l-.002-.003a5.686 5.686 0 0 1-1.904.903l5.314 6.213H9.68Zm29.752 0L35.203 26.43l-4.325 11.554h-3.954l6.554-17.512 3.483.015 6.404 17.497h-3.933Zm-13.89 0h-9.908l-.013-13.238 3.327-4.267h6.946v3.683h-5.136l-1.435 1.84.001 1.551h6.218v3.683h-6.214l.003 3.065h6.211v3.683Zm72.267-17.5-6.387 17.503h-3.483l-6.366-17.502h3.931l4.179 11.49 4.193-11.49h3.933ZM64.51 37.984v-13.83h-5.62v-3.674h14.956v3.674h-5.62v13.83H64.51Zm11.441-.001V20.48h3.716v17.502H75.95Zm33.694.004h-11.45l-.012-13.241 3.343-4.266H110v3.664h-6.664l-1.451 1.852.002 1.568h7.758v3.664h-7.755l.003 3.095h7.752v3.664ZM74.99 3.794h-5.238c-.968 0-2.714.477-2.701 1.654.016 1.562 1.721 1.576 2.958 1.698.967.096 2.117.22 3.197.645 1.367.539 2.49 1.477 2.875 3.182.452 1.999-.202 3.853-1.825 5.154-1.235.99-2.912 1.507-4.462 1.507h-5.237v-3.66h5.237c.937 0 2.515-.324 2.693-1.527.069-.469-.073-1.036-.66-1.266-.61-.241-1.461-.332-2.181-.402-2.282-.226-4.821-.718-5.863-3.016-.5-1.1-.574-2.525-.22-3.677.806-2.616 3.563-3.952 6.19-3.952h5.237v3.66ZM51.197.13v11.868c0 .542.251.965.628 1.264.593.472 1.462.71 2.307.71v.005h3.676V.13h3.715v17.505l-7.391.002v.007c-1.615 0-3.35-.51-4.629-1.526-1.211-.963-2.02-2.337-2.02-4.12V.13h3.714ZM0 17.635V4.372L3.412.13h7.093v3.678H5.193L3.715 5.646v1.731h5.979v3.674h-5.98v6.584H0Zm24.47-12.39a5.223 5.223 0 0 0-3.684-1.51c-.446 0-.861.05-1.243.141-.277.067-.554.161-.825.279l-3.063 3.804c-.055.326-.081.592-.081.93 0 1.424.584 2.712 1.526 3.644a5.228 5.228 0 0 0 3.686 1.51c1.439 0 2.742-.578 3.685-1.51a5.107 5.107 0 0 0 1.526-3.644 5.105 5.105 0 0 0-1.526-3.644ZM20.787 0a9.01 9.01 0 0 1 6.355 2.604 8.811 8.811 0 0 1 2.634 6.285 8.811 8.811 0 0 1-2.634 6.285 9.01 9.01 0 0 1-6.355 2.604 9.012 9.012 0 0 1-6.356-2.604c-2.506-2.478-3.093-5.611-2.24-8.896l4.105-5.098c.793-.408 1.481-.71 2.363-.922A9.069 9.069 0 0 1 20.786 0Zm24.58 17.633c-1.763 0-3.59.037-5.337-.003a8.867 8.867 0 0 1-6.046-2.561 8.68 8.68 0 0 1 0-12.377A8.875 8.875 0 0 1 40.241.127h5.126v3.674H40.24A5.153 5.153 0 0 0 36.61 5.29a5.04 5.04 0 0 0 0 7.183c.711.702 1.63 1.2 2.657 1.396.75.142 1.64.099 2.4.098h3.7v3.667Zm11.418 20.352c-1.764 0-3.59.037-5.337-.004A8.864 8.864 0 0 1 45.4 35.42a8.677 8.677 0 0 1-2.592-6.188c0-2.417.99-4.606 2.593-6.19a8.873 8.873 0 0 1 6.257-2.563h5.126v3.674h-5.126a5.145 5.145 0 0 0-3.63 1.487 5.036 5.036 0 0 0 0 7.183c.71.702 1.628 1.2 2.655 1.395.75.142 1.64.1 2.401.1l3.7-.001v3.668Zm-53.068-9.68h3.722c.33 0 .63-.04.893-.118.233-.07.438-.168.605-.29l.014-.015c.292-.21.495-.497.61-.818.141-.396.166-.841.078-1.276-.106-.524-.347-.918-.678-1.173-.375-.29-.903-.439-1.526-.439H5.108l-1.392 1.74v2.388Z" clip-rule="evenodd"/></svg>